<?xml version="1.0" encoding="utf-8"?>
<!-- Generator: Adobe Illustrator 21.1.0, SVG Export Plug-In . SVG Version: 6.00 Build 0)  -->
<svg version="1.1" id="Layer_1" xmlns="http://www.w3.org/2000/svg" xmlns:xlink="http://www.w3.org/1999/xlink" x="0px" y="0px"
	 viewBox="0 0 500 500" style="enable-background:new 0 0 500 500;" xml:space="preserve">
<style type="text/css">
	.st0{fill:#FFFFFF;}
	.st1{fill:none;stroke:#000000;stroke-width:3;stroke-miterlimit:10;}
</style>
<g>
	<path class="st0" d="M126,169.5c-24,0-43.5-19.5-43.5-43.5S102,82.5,126,82.5s43.5,19.5,43.5,43.5S150,169.5,126,169.5z"/>
	<path d="M126,84c23.2,0,42,18.8,42,42s-18.8,42-42,42s-42-18.8-42-42S102.8,84,126,84 M126,81c-24.9,0-45,20.1-45,45s20.1,45,45,45
		s45-20.1,45-45S150.9,81,126,81L126,81z"/>
</g>
<g>
	<line class="st1" x1="126.5" y1="171.5" x2="126.5" y2="337.5"/>
</g>
<line class="st1" x1="126.5" y1="228.5" x2="189" y2="166"/>
<line class="st1" x1="127" y1="228.5" x2="64.5" y2="166"/>
<line class="st1" x1="127" y1="338" x2="64.5" y2="400.5"/>
<line class="st1" x1="126.5" y1="338" x2="189" y2="400.5"/>
<g>
	<line class="st1" x1="124.5" y1="29.5" x2="338.8" y2="29.5"/>
</g>
<g>
	<line class="st1" x1="337.5" y1="28" x2="337.5" y2="470.5"/>
</g>
<g>
	<line class="st1" x1="223" y1="470.5" x2="435" y2="470.5"/>
</g>
<line class="st1" x1="125.5" y1="28" x2="125.5" y2="80.5"/>
</svg>
