<?xml version="1.0" encoding="utf-8"?>
<!-- Generator: Adobe Illustrator 21.1.0, SVG Export Plug-In . SVG Version: 6.00 Build 0)  -->
<svg version="1.1" id="Layer_1" xmlns="http://www.w3.org/2000/svg" xmlns:xlink="http://www.w3.org/1999/xlink" x="0px" y="0px"
	 viewBox="0 0 1024 768" style="enable-background:new 0 0 1024 768;" xml:space="preserve">
<style type="text/css">
	.st0{fill:#FFFFFF;}
	.st1{fill:none;stroke:#000000;stroke-miterlimit:10;}
</style>
<g>
	<path class="st0" d="M204,230.5c-24.5,0-44.5-20-44.5-44.5s20-44.5,44.5-44.5s44.5,20,44.5,44.5S228.5,230.5,204,230.5z"/>
	<path d="M204,142c24.3,0,44,19.7,44,44s-19.7,44-44,44s-44-19.7-44-44S179.7,142,204,142 M204,141c-24.9,0-45,20.1-45,45
		s20.1,45,45,45s45-20.1,45-45S228.9,141,204,141L204,141z"/>
</g>
<g>
	<line class="st1" x1="204.5" y1="231.5" x2="204.5" y2="397.5"/>
</g>
<line class="st1" x1="204.5" y1="288.5" x2="267" y2="226"/>
<line class="st1" x1="205" y1="288.5" x2="142.5" y2="226"/>
<line class="st1" x1="205" y1="398" x2="142.5" y2="460.5"/>
<line class="st1" x1="204.5" y1="398" x2="267" y2="460.5"/>
<g>
	<line class="st1" x1="203.5" y1="89.5" x2="415.5" y2="89.5"/>
</g>
<g>
	<line class="st1" x1="415.5" y1="90" x2="415.5" y2="530.5"/>
</g>
<g>
	<line class="st1" x1="301" y1="530.5" x2="513" y2="530.5"/>
</g>
<line class="st1" x1="203.5" y1="89.5" x2="203.5" y2="140.5"/>
</svg>
