<?xml version="1.0" encoding="utf-8"?>
<!-- Generator: Adobe Illustrator 21.1.0, SVG Export Plug-In . SVG Version: 6.00 Build 0)  -->
<svg version="1.1" id="Layer_1" xmlns="http://www.w3.org/2000/svg" xmlns:xlink="http://www.w3.org/1999/xlink" x="0px" y="0px"
	 viewBox="0 0 500 500" style="enable-background:new 0 0 500 500;" xml:space="preserve">
<style type="text/css">
	.st0{fill:#FFFFFF;}
	.st1{fill:none;stroke:#000000;stroke-width:2;stroke-miterlimit:10;}
</style>
<g>
	<path class="st0" d="M126,170c-24.3,0-44-19.7-44-44s19.7-44,44-44s44,19.7,44,44S150.3,170,126,170z"/>
	<path d="M126,83c23.7,0,43,19.3,43,43s-19.3,43-43,43s-43-19.3-43-43S102.3,83,126,83 M126,81c-24.9,0-45,20.1-45,45s20.1,45,45,45
		s45-20.1,45-45S150.9,81,126,81L126,81z"/>
</g>
<g>
	<line class="st1" x1="124.5" y1="29.5" x2="338.4" y2="29.5"/>
</g>
<g>
	<line class="st1" x1="337.5" y1="28.6" x2="337.5" y2="470.5"/>
</g>
<g>
	<line class="st1" x1="223" y1="470.5" x2="435" y2="470.5"/>
</g>
<line class="st1" x1="125.5" y1="28.7" x2="125.5" y2="80.5"/>
</svg>
